<svg width="48" height="32" viewBox="0 0 48 32" fill="none" xmlns="http://www.w3.org/2000/svg">
<g clip-path="url(#clip0_45_2511)">
<path d="M0.350788 23.3813H3.49877C5.36015 23.3813 6.52292 24.2098 6.51085 25.4776C6.50566 26.0233 6.51085 26.7043 5.80475 27.3275C6.29372 27.3275 6.85465 27.9913 6.85465 29.3078C6.85465 30.9818 5.87675 31.8781 4.34019 31.8781H0.350788V23.3813ZM2.28185 25.2018V26.7443H3.80629C4.37015 26.7443 4.50491 26.2681 4.50491 26.0201V25.9613C4.50491 25.4776 4.31485 25.2253 3.80629 25.2253L2.28185 25.2018ZM2.28185 28.3505V30.1758H4.06952C4.49682 30.1758 4.65808 29.7386 4.65808 29.3527V29.226C4.65808 28.6434 4.38109 28.3617 3.87025 28.3617L2.28185 28.35V28.3505Z" fill="#1E1E1E"/>
<path d="M9.07595 28.1019L6.15371 23.3818H8.69467L10.1051 26.1505L11.6555 23.3818H13.9678L11.1343 28.1019V31.8781H9.07595V28.1019Z" fill="#1E1E1E"/>
<path d="M28.9677 26.1269C28.9677 27.8426 27.6004 29.2232 24.6178 29.2232V31.8748H22.5329V23.3936H25.6987C28.1447 23.3936 28.9677 24.4112 28.9677 26.1269ZM24.6178 27.6385H25.3451C26.2833 27.6385 27.0193 27.1141 27.0193 26.1269C27.0193 25.1397 26.421 24.8703 25.3451 24.8703H24.6178V27.639V27.6385Z" fill="#1E1E1E"/>
<path d="M0.350788 22.2368V11.1172H3.29892L6.67786 17.0666L10.2411 11.1172H13.1892V22.2368H10.2411V17.1564L6.67786 22.2368L3.29892 17.1564V22.2368H0.350788Z" fill="#1E1E1E"/>
<path d="M16.8169 11.1182H20.8294L23.7568 22.2377H21.1513L20.4659 20.1698H17.0882L16.4541 22.2377H13.7974L16.8175 11.1182H16.8169ZM18.8234 14.0525L17.4959 18.1243H20.053L18.8234 14.0525Z" fill="#1E1E1E"/>
<path d="M34.0813 11.1177H42.3469V13.6309H36.7133V15.3808H42.3469V17.8304H36.7133V19.9144H42.3469V22.2368H34.0813V11.1172V11.1177Z" fill="#1E1E1E"/>
<path d="M29.4272 23.3936H35.7318V25.3107H31.4349V26.6454H35.7318V28.514H31.4349V30.1036H35.7318V31.8748H29.4272V23.3936Z" fill="#1E1E1E"/>
<path d="M16.7777 23.3936H19.8382L22.071 31.8748H20.0841L19.5611 30.2976H16.9845L16.5007 31.8748H14.474L16.7777 23.3936ZM18.3085 25.632L17.2961 28.7374H19.2467L18.3085 25.632Z" fill="#1E1E1E"/>
<path d="M28.0802 22.2528L24.328 22.2427V11.1231L28.0802 11.0884C31.5956 11.0884 33.4731 12.7218 33.4731 16.7545C33.4731 19.8482 31.671 22.2528 28.0802 22.2528ZM26.9111 19.8482H28.0802C29.721 19.8482 30.7219 18.8465 30.7219 16.7545C30.7219 14.6625 29.941 13.6871 28.0802 13.6871H26.9111V19.8482Z" fill="#1E1E1E"/>
<path fill-rule="evenodd" clip-rule="evenodd" d="M36.4828 25.7518C36.4828 24.4289 37.4707 23.4679 39.0688 23.3369C40.4026 23.2273 41.6178 23.6908 42.5396 24.2776L41.6972 26.0746C41.6972 26.0746 40.7545 25.5508 40.2004 25.383C39.7655 25.2509 39.1874 25.3755 39.0688 25.6582C38.9502 25.941 38.9721 26.2301 39.3561 26.4151C39.3868 26.43 39.4211 26.4461 39.4585 26.4642C39.6706 26.5647 39.9907 26.7171 40.3535 26.9287H40.3595C40.3595 26.9287 41.1392 27.3312 41.748 27.9779C41.7974 28.0271 41.8465 28.0779 41.8941 28.1292H41.8839C42.2104 28.5156 42.4585 28.9753 42.4585 29.4804C42.4585 30.8027 41.3199 31.8551 39.7218 31.9861C38.388 32.0956 37.1689 31.512 36.2467 30.9251L36.8982 29.1255C36.8982 29.1255 38.1872 29.6808 38.7406 29.8492C39.1754 29.9812 39.7535 29.8567 39.8721 29.5739C39.9907 29.2911 40.0059 29.0896 39.5848 28.8171C39.4535 28.7321 39.2961 28.6439 39.1182 28.5445C38.9852 28.4702 38.8408 28.3895 38.6876 28.2986C38.5211 28.2147 36.4811 27.1596 36.4811 25.7518H36.4828Z" fill="#1E1E1E"/>
<path d="M45.8569 12.9425V11.0884H46.32L46.8978 12.0804L47.4494 11.0884H47.9982V12.9425H47.5352V12.0275L46.8978 12.9425L46.3489 12.0275V12.9425H45.8569Z" fill="#1E1E1E"/>
<path d="M43.9271 11.4785V11.0884H45.6826V11.4785H45.0427V12.9425H44.5729V11.4785H43.9271Z" fill="#1E1E1E"/>
<path d="M9.97038 0.854692L8.97463 0.697017C8.91646 0.687932 8.90665 0.615777 8.96022 0.593862C11.2743 -0.350049 13.7144 0.0363872 15.4929 1.51853C15.5562 1.57145 15.5395 1.66712 15.4641 1.704C15.1439 1.86061 14.788 2.0883 14.629 2.19359C14.5801 2.2262 14.5127 2.22032 14.4695 2.18183C13.3297 1.16897 11.2219 1.03107 9.97038 0.854157V0.854692Z" fill="#1E1E1E"/>
<path d="M32.7278 0.854692L33.7242 0.697017C33.7824 0.687932 33.7921 0.615777 33.7386 0.593862C31.4239 -0.350049 28.9838 0.0363872 27.2053 1.51853C27.142 1.57145 27.1587 1.66712 27.2341 1.704C27.5544 1.86061 27.9103 2.0883 28.0692 2.19359C28.1182 2.2262 28.1856 2.22032 28.2288 2.18183C29.3685 1.16897 31.4763 1.03107 32.7278 0.854157V0.854692Z" fill="#1E1E1E"/>
<path d="M21.4087 1.66815C19.8088 1.66815 18.9138 1.2908 17.3393 1.26888C17.2862 1.26835 17.2598 1.20902 17.2989 1.17588C18.422 0.222348 20.5863 0 21.3384 0C21.9702 0 24.066 0.175848 25.2858 1.16947C25.3273 1.20314 25.2996 1.26461 25.2443 1.26354C23.6657 1.24002 23.6542 1.66761 21.4081 1.66761L21.4087 1.66815Z" fill="#1E1E1E"/>
<path fill-rule="evenodd" clip-rule="evenodd" d="M1.56944 9.45722H0.595554C0.42508 9.45722 0.307592 9.29686 0.365761 9.14827C0.472882 8.87357 0.612255 8.48125 0.630682 8.25461C0.647962 8.03814 0.640473 7.8591 0.632987 7.69659C0.61859 7.36897 0.60707 7.10865 0.813251 6.7452C0.982571 6.44698 1.16917 6.20803 1.3598 5.96487C1.59881 5.65964 1.843 5.34753 2.06472 4.90174C2.23347 4.56181 2.34289 4.07809 2.45981 3.56018C2.5675 3.08288 2.68153 2.57671 2.85489 2.12827C3.21657 1.19398 3.345 0.861531 4.22905 0.722562C5.09291 0.5868 6.08005 0.848702 7.08155 1.11541C7.65575 1.26828 8.23514 1.42221 8.79896 1.50292C9.15431 1.55369 9.51483 1.59806 9.87247 1.64189C11.3739 1.82629 12.8379 2.00587 13.7565 2.6633C13.8653 2.74134 13.8653 2.88939 13.783 2.99201C13.4392 3.42067 13.1524 4.185 13.0976 5.1038C13.0579 5.76389 13.226 6.58593 13.5353 7.60201C13.7139 8.18834 13.3971 8.82223 13.1869 9.24341C13.1731 9.2707 13.1604 9.29686 13.1477 9.32199C13.1074 9.40378 13.0199 9.45775 12.9226 9.45775H5.42869C5.2962 9.45775 5.18908 9.35779 5.18276 9.23487C5.12979 8.18299 4.69496 7.08516 3.5742 7.08516C2.45347 7.08516 1.95127 8.39518 1.81477 9.25625C1.79692 9.37062 1.69383 9.45827 1.56944 9.45827V9.45722ZM3.46421 5.79543C3.00866 5.34004 3.22002 4.92473 3.4573 4.45918C3.53792 4.301 3.62202 4.13691 3.68305 3.96318C3.74986 3.77399 3.80344 3.57569 3.85641 3.38058C4.06433 2.61252 4.26071 1.88668 5.21848 1.88668C5.21848 1.88668 5.87848 1.9396 6.25856 2.14965C7.21747 2.67934 7.15355 4.65376 6.19867 5.59178C5.38087 6.39512 3.87544 6.20645 3.46421 5.79487V5.79543ZM8.28812 6.86387C9.20555 7.48549 10.6811 7.32193 11.3244 6.84087C12.1704 6.20803 12.3587 4.08877 11.6411 3.47038C10.8671 2.80387 10.0257 2.73011 9.11686 3.13419C8.08945 3.59119 7.64827 6.43094 8.28755 6.86387H8.28812Z" fill="#1E1E1E"/>
<path fill-rule="evenodd" clip-rule="evenodd" d="M41.1282 9.45722H42.1016C42.2721 9.45722 42.3896 9.29686 42.3314 9.14827C42.2241 8.87357 42.0847 8.48125 42.0664 8.25461C42.0491 8.03814 42.0565 7.8591 42.0642 7.69659C42.0783 7.36897 42.09 7.10865 41.8839 6.7452C41.7145 6.44698 41.5278 6.20803 41.3372 5.96487C41.0982 5.65964 40.854 5.34753 40.6323 4.90174C40.4636 4.56181 40.3542 4.07809 40.2374 3.56018C40.1298 3.08288 40.0154 2.57671 39.8421 2.12827C39.4804 1.19398 39.3522 0.861531 38.4681 0.722562C37.6041 0.5868 36.6169 0.848702 35.6156 1.11541C35.0413 1.26828 34.462 1.42221 33.8981 1.50292C33.5428 1.55369 33.1823 1.59806 32.8246 1.64189C31.3232 1.82629 29.8592 2.00587 28.9406 2.6633C28.8318 2.74134 28.8318 2.88939 28.9141 2.99201C29.2579 3.42067 29.5447 4.185 29.5994 5.1038C29.6392 5.76389 29.471 6.58593 29.1618 7.60201C28.9999 8.1338 29.2447 8.70413 29.4491 9.1194C29.5499 9.32414 29.7728 9.45775 30.0153 9.45775H37.2688C37.4019 9.45775 37.5085 9.35779 37.5148 9.23487C37.5678 8.18299 38.0026 7.08516 39.1235 7.08516C40.2441 7.08516 40.7471 8.39518 40.8829 9.25625C40.9006 9.37062 41.004 9.45827 41.1282 9.45827V9.45722ZM39.234 5.79543C39.6896 5.34004 39.4782 4.92473 39.2411 4.45918C39.1602 4.301 39.0769 4.13691 39.0152 3.96318C38.9485 3.77399 38.8948 3.57569 38.8419 3.38058C38.634 2.61252 38.4374 1.88668 37.4799 1.88668C37.4799 1.88668 36.8199 1.9396 36.4398 2.14965C35.4808 2.67934 35.5447 4.65376 36.4994 5.59178C37.3175 6.39512 38.8228 6.20645 39.234 5.79487V5.79543ZM34.4101 6.86387C33.4927 7.48549 32.0172 7.32193 31.3739 6.84087C30.5278 6.20803 30.3395 4.08877 31.0571 3.47038C31.8312 2.80387 32.6726 2.73011 33.5814 3.13419C34.6088 3.59119 35.05 6.43094 34.4107 6.86387H34.4101Z" fill="#1E1E1E"/>
<path fill-rule="evenodd" clip-rule="evenodd" d="M18.9374 9.45715H14.1602C14.0669 9.45715 14.0093 9.36309 14.0525 9.28666C14.6071 8.31069 14.4078 7.62279 14.185 6.85472C14.0202 6.28654 13.8423 5.67455 13.9494 4.87016C14.2356 3.32067 15.0091 2.54458 16.5698 2.17204C17.3796 1.97855 18.3431 2.12714 19.3417 2.28107C20.0334 2.38744 20.7412 2.49647 21.4272 2.49647C21.9386 2.49647 22.5565 2.40561 23.2016 2.311C24.2158 2.16188 25.2968 2.00367 26.1336 2.17204C27.7439 2.49647 28.6054 3.3816 28.6941 4.78785C28.7529 5.72426 28.587 6.38597 28.4453 6.94986C28.2432 7.75425 28.0917 8.35984 28.7143 9.27864C28.7661 9.35508 28.7091 9.45771 28.6118 9.45771H23.7182C23.6088 9.45771 23.5132 9.39034 23.4774 9.29414C23.3024 8.82539 22.6884 7.50841 21.3281 7.50841C19.9678 7.50841 19.3538 8.82539 19.1782 9.29414C19.1425 9.38981 19.0463 9.45771 18.9374 9.45771V9.45715ZM18.2389 7.26254C17.2823 7.78473 16.0383 7.77672 15.5557 6.74516C15.0079 5.573 15.5401 3.9161 17.0824 3.50614C18.6979 3.07693 20.2609 3.28645 20.2022 4.41691C20.1584 5.25713 19.3573 6.65213 18.2389 7.26201V7.26254ZM27.1766 6.74516C26.6945 7.77672 25.45 7.78421 24.4934 7.26254C23.3749 6.65213 22.5738 5.25713 22.53 4.41744C22.4713 3.28699 24.0343 3.07747 25.6498 3.50666C27.1915 3.91663 27.7243 5.57353 27.1766 6.74569V6.74516Z" fill="#1E1E1E"/>
</g>
<defs>
<clipPath id="clip0_45_2511">
<rect width="48" height="32" fill="white"/>
</clipPath>
</defs>
</svg>
